<svg xmlns="http://www.w3.org/2000/svg" width="221" height="221" fill="none"><g clip-path="url(#a)"><path fill="#5511D6" d="M172.919 86.908c-.574-12.812-8.016-23.925-8.016-23.925s-3.809-7.163-19.77-18.225c-3.241-2.247-4.93-3.712-8.211-5.901-.062-.043-.271-.17-.469-.316a13.547 13.547 0 0 1-.497-.402c-.12-.103-.694-.623-.941-.784-.284-.119-.954.492-.828.763 3.399 5.002 6.492 11 5.405 17.209-1.37 7.826-8.396 13.174-14.952 17.057-4.543 2.694-9.368 4.898-14.201 7.032-7.103 2.92-12.897 5.55-19.792 9.134l-5.788 2.408c-7.01 2.94-10.124 4.323-16.98 7.616-3.981 1.913-6.908 3.758-9.84 6.826-.611.638-2.321 2.493-4.364 6.111-4.976 8.808-5.908 17.431-6.109 19.644-.315 3.488-.898 11.125 2.37 20.125 1.14 3.138 2.683 6.193 4.674 9.173 5.284 7.917 12.325 13.007 20.285 18.057.13.082.281.137.436.189.154.051.318.091.478.124l.229-.617c-.044-4.764 1.148-9.592 3.778-13.621 4.87-7.464 15.319-12.019 23.4-15.385 7.72-2.988 15.294-5.95 22.81-9.522.17-.082.327-.195.482-.31.157-.116.305-.247.45-.38.318-.076.633-.155.942-.25.309-.094.617-.191.907-.322a587.532 587.532 0 0 0 16.619-7.607c11.813-5.649 21.885-15.175 25.906-27.699a60.531 60.531 0 0 0 1.331-7.975s.429-4.32.253-8.227h.003Z"/><path fill="#8F69FF" d="M88.695 81.889c-8.161-5.29-15.406-8.826-22.428-16.774-15.86-17.96-11.26-46.552 7.834-60.982 5.618-4.245 9.229-5.145 15.362-1.004 2.781 1.88 5.627 4.15 8.325 6.182 12.449 9.382 24.487 19.033 37.228 28.032.059.192.42.675.473.757 4.904 7.346 7.812 14.853 2.651 23.093-6.788 10.83-31.407 19.823-42.84 25.077m45.167 133.631c2.513.884 5.454.997 10.097-2.037 10.738-7.018 18.356-25.838 14.186-42.272 0 0-4.729-16.263-22.304-26.327-5.414-3.098-9.032-5.317-13.965-8.853-.459-.326-1.216-1.141-1.521-1.433-2.596 1.174-5.985 2.162-8.606 3.299-11.455 4.962-29.496 10.168-37.716 19.423-4.056 4.566-5.883 10.793-5.673 16.822 16.402 10.736 33.058 21.101 49.278 32.101 2.124 1.442 14.221 8.571 16.224 9.277Z"/></g><defs><clipPath id="a"><path fill="#fff" d="M.136.446h220v220h-220z"/></clipPath></defs></svg>