<?xml version="1.0"?>
<svg xmlns="http://www.w3.org/2000/svg" width="125.568" height="220.068" viewBox="0 0 125.568 220.068" fill="none">
  <path transform="translate(0,36.905)" fill="#FFFFFF" d="M 125.528 49.583 C 124.954 36.767 117.517 25.651 117.517 25.651 C 117.517 25.651 113.71 18.485 97.759 7.421 C 94.52 5.173 92.832 3.707 89.553 1.518 C 89.491 1.475 89.282 1.347 89.084 1.201 C 88.912 1.07 88.708 0.9 88.588 0.8 C 88.467 0.696 87.894 0.176 87.647 0.015 C 87.363 -0.104 86.694 0.508 86.82 0.778 C 90.216 5.782 93.307 11.782 92.222 17.993 C 90.852 25.821 83.831 31.171 77.279 35.055 C 72.738 37.749 67.917 39.954 63.086 42.09 C 55.988 45.009 50.198 47.64 43.306 51.226 L 37.523 53.635 C 30.517 56.576 27.405 57.959 20.553 61.253 C 16.574 63.166 13.65 65.012 10.719 68.081 C 10.108 68.72 8.399 70.575 6.357 74.194 C 1.385 83.005 0.453 91.631 0.252 93.845 C -0.062 97.333 -0.645 104.973 2.622 113.976 C 3.76 117.114 5.302 120.171 7.292 123.151 C 12.573 131.071 19.609 136.162 27.565 141.214 C 27.694 141.296 27.846 141.351 28 141.403 C 28.154 141.454 28.318 141.494 28.478 141.527 L 28.706 140.91 C 28.663 136.144 29.854 131.314 32.482 127.285 C 37.35 119.818 47.792 115.262 55.868 111.895 C 63.583 108.906 71.153 105.943 78.664 102.37 C 78.834 102.288 78.991 102.175 79.145 102.059 C 79.303 101.944 79.451 101.813 79.596 101.679 C 79.913 101.603 80.228 101.524 80.536 101.43 C 80.845 101.336 81.153 101.238 81.443 101.107 C 87.018 98.65 92.561 96.126 98.052 93.498 C 109.857 87.847 119.923 78.318 123.942 65.791 C 124.426 63.741 124.954 61.028 125.272 57.813 C 125.272 57.813 125.7 53.492 125.525 49.583 Z"></path>
  <path transform="translate(9.347,0)" fill="#B999F6" d="M 32.009 81.468 C 23.853 76.176 16.613 72.639 9.595 64.689 C -6.254 46.723 -1.658 18.122 17.424 3.688 C 23.039 -0.558 26.648 -1.458 32.777 2.684 C 35.556 4.564 38.401 6.835 41.097 8.867 C 53.538 18.253 65.568 27.906 78.302 36.909 C 78.361 37.1 78.722 37.584 78.774 37.666 C 83.676 45.014 86.582 52.523 81.424 60.765 C 74.64 71.599 50.036 80.595 38.61 85.85"></path>
  <path transform="translate(27.618,138.576)" fill="#B999F6" d="M 65.478 80.946 C 67.989 81.831 70.929 81.944 75.568 78.909 C 86.3 71.889 93.913 53.063 89.746 36.624 C 89.746 36.624 85.02 20.356 67.455 10.289 C 62.045 7.19 58.429 4.97 53.5 1.432 C 53.04 1.107 52.284 0.292 51.979 0 C 49.385 1.174 45.998 2.162 43.379 3.3 C 31.931 8.263 13.901 13.47 5.686 22.728 C 1.633 27.296 -0.194 33.525 0.016 39.556 C 16.409 50.295 33.054 60.663 49.264 71.667 C 51.387 73.109 63.476 80.241 65.478 80.946 Z"></path>
</svg>
