<svg width="98" height="35" xmlns="http://www.w3.org/2000/svg" xmlns:xlink="http://www.w3.org/1999/xlink" viewBox="27 0 98 35"><g transform="translate(27 0)"><g transform="translate(0 0)"><path d="M 90.913 7.76 C 89.964 8.065 89.1 8.575 89.098 9.718 C 89.096 10.941 89.104 12.166 89.104 13.39 C 89.104 15.072 88.881 15.364 90.062 16.151 C 90.777 16.628 92.041 16.924 92.979 16.566 C 95.836 15.474 95.535 6.274 90.913 7.76 Z M 89.392 5.282 C 91.906 2.848 98.646 3.088 98.725 12.309 C 98.762 16.625 96.858 20.457 92.499 20.346 C 91.739 20.327 91.13 20.174 90.518 19.896 C 89.977 19.65 89.36 19.069 89.105 19.032 C 89.077 20.412 89.101 21.823 89.107 23.206 C 89.11 24.006 89.016 24.405 88.196 24.446 C 84.635 24.627 85.22 24.549 85.22 21.046 L 85.22 8.429 C 85.22 4.027 84.759 4.336 87.325 4.331 C 88.113 4.329 88.848 4.164 88.993 4.79 C 89.049 5.182 88.963 5.209 89.158 5.502 C 89.594 5.341 89.205 5.535 89.392 5.282 Z M 0.782 0.565 C 1.537 -0.071 2.358 0.068 3.534 0.069 L 10.435 0.069 C 11.29 0.069 13.089 -0.235 13.497 0.435 C 13.715 0.86 13.711 2.858 13.501 3.274 C 13.306 3.612 13.178 3.627 12.703 3.639 C 12.283 3.649 11.831 3.633 11.406 3.633 C 9.506 3.633 5.421 3.534 3.982 3.659 L 3.99 8.087 C 5.667 8.188 9.928 8.004 10.883 8.11 C 11.753 8.207 11.569 9 11.568 9.831 C 11.568 10.54 11.733 11.451 11.051 11.629 L 3.978 11.676 C 4.06 13.594 3.99 15.661 3.99 17.595 C 3.99 18.607 4.277 19.846 3.322 20.002 C 2.73 20.099 0.809 20.14 0.404 19.878 C -0.123 19.523 0.057 18.53 0.057 17.703 L 0.057 5.302 C 0.057 3.873 -0.242 1.819 0.533 0.836 L 0.782 0.565 Z M 53.745 8.315 C 52.014 6.231 48.759 7.496 48.77 10.508 L 54.564 10.531 C 54.553 9.812 54.357 9.078 53.986 8.63 C 53.845 8.192 53.942 8.426 53.745 8.315 Z M 48.694 13.369 C 48.712 15.725 50.544 16.92 52.689 16.71 C 53.686 16.613 53.771 16.369 54.473 16.016 C 55.184 15.658 55.554 16.178 56.008 16.559 C 56.32 16.822 57.173 17.428 57.276 17.772 C 57.767 19.425 50.75 22.25 47.029 18.424 C 43.694 14.995 43.834 7.486 48.623 4.771 C 51.16 3.333 54.388 4.067 56.002 5.674 C 56.72 6.387 57.383 7.474 57.805 8.723 C 58.075 9.521 58.664 12.321 58.196 13.062 C 57.859 13.595 54.576 13.363 53.679 13.363 C 52.022 13.363 50.349 13.341 48.694 13.369 Z M 79.922 10.53 C 79.805 6.32 74.247 6.13 74.114 10.53 Z M 82.148 13.363 L 74.042 13.367 C 74.187 15.925 76.289 17.322 78.894 16.498 C 80.507 15.988 79.692 15.254 81.592 16.75 C 82.582 17.529 83.357 17.997 81.842 19.018 C 78.125 21.521 72.367 20.56 70.716 15.763 C 69.011 10.808 71.046 5.552 75.099 4.291 C 80.41 2.639 83.685 7.087 83.685 12.419 C 83.685 13.524 83.075 13.363 82.148 13.363 Z M 16.068 18.367 C 14.559 16.742 14.723 12.731 14.723 10.154 C 14.723 8.576 14.697 6.978 14.716 5.403 C 14.73 4.33 15.04 4.319 16.041 4.329 C 16.745 4.335 17.81 4.192 18.327 4.474 L 17.747 4.643 C 17.766 5.491 17.672 12.037 17.873 12.662 C 17.921 12.812 18.051 12.521 17.877 13.599 C 17.967 13.558 18.251 13.417 18.291 13.409 C 18.429 13.38 18.295 13.388 18.43 13.403 L 18.626 13.497 C 18.8 15.557 19.445 16.756 21.653 16.706 C 23.719 16.659 24.368 15.193 24.402 13.166 C 24.435 11.199 24.299 6.717 24.4 5.185 C 24.443 4.546 24.596 4.368 25.204 4.328 C 28.896 4.092 28.282 4.075 28.282 8.321 C 28.282 10.066 28.435 19.374 28.133 19.752 C 27.631 20.186 26.585 20.022 25.856 20.025 C 24.685 20.029 24.427 20.032 24.397 18.822 C 24.043 18.923 23.859 19.458 22.773 19.901 C 20.578 20.797 17.633 20.343 16.3 18.675 L 16.068 18.367 Z M 43.429 7.674 C 43.181 8.036 42.502 8.635 42.16 8.989 C 41.485 9.686 41.193 9.787 40.471 9.019 C 39.697 8.195 38.352 7.374 36.684 7.827 C 32.718 8.904 33.157 17.604 38.501 16.536 C 40.786 16.08 40.874 14.222 42.058 15.304 C 42.357 15.578 43.194 16.298 43.38 16.576 C 44.159 17.736 41.012 19.794 39.228 20.181 C 32.341 21.674 28.445 14.332 30.718 8.759 C 32.584 4.185 37.47 2.883 41.121 4.81 C 41.886 5.214 44.023 6.808 43.429 7.674 Z M 63.948 5.517 C 64.045 5.588 64.612 4.962 64.893 4.759 C 65.267 4.489 65.764 4.253 66.299 4.123 C 67.472 3.838 68.98 4.039 69.761 4.64 C 70.296 5.053 70.053 5.586 69.882 6.196 C 69.754 6.652 69.593 7.51 69.416 7.885 C 68.942 8.894 68.542 7.789 66.105 7.901 C 65.94 7.606 66.047 7.767 65.849 7.66 L 64.678 7.451 C 64.547 7.781 64.801 7.631 64.348 7.782 L 64.441 8.378 C 64.44 8.4 64.44 8.43 64.435 8.451 C 64.431 8.473 64.419 8.503 64.411 8.524 C 64.399 8.553 64.264 8.728 64.248 8.752 C 64.279 8.827 64.298 8.879 64.308 8.915 C 64.322 8.903 64.351 8.902 64.409 8.928 C 64.324 9.608 64.024 9.536 63.96 11.238 C 63.895 12.931 64.047 18.132 63.952 19.226 C 63.897 19.853 63.774 19.689 63.733 19.709 L 61.012 19.653 C 60.739 18.767 60.892 17.245 60.892 16.193 L 60.918 4.739 L 63.493 4.76 C 63.484 4.812 63.263 4.697 63.482 5.144 C 63.693 5.576 63.542 5.362 63.948 5.517 Z" fill="rgb(255,255,255)"></path><path d="M 63.733 19.709 C 63.532 20.111 63.409 20.031 62.524 20.027 C 62.034 20.024 61.497 20.049 61.015 20.031 C 59.795 19.986 60.064 19.022 60.065 17.919 L 60.062 5.621 C 60.057 4.111 60.458 4.325 61.874 4.329 C 63.282 4.332 63.96 3.98 63.948 5.517 C 63.542 5.362 63.693 5.576 63.482 5.144 C 63.263 4.697 63.484 4.812 63.493 4.76 L 60.918 4.739 L 60.892 16.193 C 60.892 17.245 60.739 18.767 61.012 19.653 L 63.733 19.709 Z M 94.224 31.722 C 94.448 31.127 94.366 29.956 93.969 29.498 C 93.453 28.903 92.424 29.351 92.262 29.845 C 92.166 30.138 92.228 30.839 92.225 31.191 C 92.214 32.673 93.812 32.815 94.224 31.722 Z M 92.416 28.681 C 94.216 27.566 95.333 29.001 95.309 30.971 C 95.298 31.903 95.006 32.599 94.427 32.996 C 93.542 33.602 93.006 33.222 92.25 32.898 L 92.234 34.472 L 91.292 35 L 91.289 28.397 L 92.099 28.401 L 92.416 28.681 Z M 79.129 31.59 C 79.378 31.732 79.739 31.976 79.848 32.057 C 79.184 33.768 75.144 34.2 74.958 30.214 C 74.757 25.92 79.319 26.128 79.775 27.948 L 79.037 28.441 C 78.447 28.052 78.052 27.283 76.913 27.893 C 75.295 28.759 75.716 33.046 78.232 32.242 C 78.705 32.09 78.677 31.836 79.129 31.59 Z M 88.43 32.297 C 89.654 31.742 89.325 28.686 87.63 29.313 C 86.242 29.826 86.764 33.052 88.43 32.297 Z M 90.104 30.243 C 90.646 33.854 86.481 34.269 85.922 31.506 C 85.195 27.917 89.639 27.15 90.104 30.243 Z M 82.792 32.428 C 83.548 32.445 83.948 31.576 83.978 30.921 C 84.011 30.182 83.658 29.234 82.791 29.212 C 82.244 29.198 81.705 29.679 81.683 30.882 C 81.67 31.547 81.968 32.409 82.792 32.428 Z M 80.756 31.507 C 80.676 31.093 80.694 30.7 80.714 30.3 C 81.066 27.557 84.911 27.58 84.956 30.762 C 84.979 32.426 83.921 33.303 82.85 33.323 C 81.948 33.34 81.024 32.829 80.756 31.507 Z M 18.626 13.497 L 18.43 13.403 C 18.295 13.388 18.429 13.38 18.291 13.409 C 18.251 13.417 17.967 13.559 17.877 13.599 C 18.051 12.521 17.921 12.812 17.873 12.662 C 17.672 12.037 17.766 5.491 17.747 4.643 L 18.327 4.474 C 18.762 4.906 18.608 5.728 18.608 6.488 C 18.608 7.243 18.608 7.998 18.608 8.752 C 18.608 10.326 18.579 11.926 18.626 13.497 Z M 97.55 32.395 C 97.75 33.437 96.343 33.584 96.145 32.801 C 95.875 31.731 97.377 31.491 97.55 32.395 Z M 64.409 8.929 C 64.351 8.902 64.322 8.903 64.308 8.915 C 64.298 8.879 64.279 8.827 64.248 8.753 C 64.264 8.728 64.399 8.553 64.411 8.524 C 64.419 8.503 64.431 8.473 64.435 8.451 C 64.44 8.43 64.44 8.4 64.441 8.378 L 64.348 7.782 C 64.801 7.631 64.547 7.781 64.678 7.451 L 65.849 7.66 C 66.047 7.767 65.94 7.606 66.105 7.901 C 65.723 8.023 65.453 8.091 65.167 8.268 C 64.737 8.533 64.791 8.712 64.409 8.928 Z M 64.308 8.915 C 64.348 9.048 64.273 8.945 64.308 8.915 Z M 89.392 5.282 C 89.205 5.535 89.594 5.341 89.158 5.502 C 88.963 5.209 89.049 5.182 88.993 4.79 C 89.155 4.954 89.06 4.707 89.131 4.994 C 89.155 5.091 89.152 5.234 89.156 5.334 L 89.392 5.282 Z M 53.745 8.315 C 53.942 8.426 53.845 8.192 53.986 8.63 Z M 16.068 18.367 L 16.3 18.675 C 16.13 18.566 16.199 18.747 16.068 18.367 Z" fill="rgb(255,255,255)"></path></g></g></svg>