<svg width="135" height="26" viewBox="0 0 135 26" fill="none" xmlns="http://www.w3.org/2000/svg">
<g clip-path="url(#clip0_340_657)">
<path d="M26.8627 25.6578H31.5663C31.6563 25.6578 31.7283 25.5859 31.7283 25.496V8.01112C31.7283 7.92125 31.6563 7.84936 31.5663 7.84936H26.8627C26.7726 7.84936 26.7006 7.92125 26.7006 8.01112V25.496C26.7006 25.5859 26.7726 25.6578 26.8627 25.6578Z" fill="#A1EDFF"/>
<path d="M88.6322 15.0924C88.5139 15.0924 88.4368 14.9743 88.4831 14.8664C89.2108 13.0948 90.9545 11.847 92.9912 11.847C95.028 11.847 96.7691 13.0948 97.4968 14.8664C97.5406 14.9743 97.4634 15.0924 97.3477 15.0924H88.6322ZM94.2745 7.59774C88.4471 6.81208 83.4914 11.4696 83.7897 17.1978C84.0366 21.9246 87.7681 25.645 92.5 25.8889C96.0618 26.0712 99.2122 24.2328 100.897 21.4162C100.951 21.3264 100.904 21.2108 100.804 21.1774C99.6442 20.8077 98.0009 20.248 96.8308 19.8449C96.7691 19.8244 96.6996 19.8449 96.6585 19.8937C95.7661 20.9181 94.452 21.5651 92.9861 21.5651C90.9493 21.5651 89.2057 20.3173 88.4805 18.5457C88.4368 18.4379 88.5139 18.3198 88.6296 18.3198H101.915C101.995 18.3198 102.064 18.2607 102.077 18.1837C102.154 17.7061 102.193 17.2157 102.195 16.7151C102.2 12.1449 98.8084 8.21139 94.2719 7.59774" fill="#A1EDFF"/>
<path d="M56.8049 25.5474H61.5085C61.5985 25.5474 61.6706 25.4755 61.6706 25.3856V8.01112C61.6706 7.92125 61.5985 7.84936 61.5085 7.84936H56.8049C56.7149 7.84936 56.6429 7.92125 56.6429 8.01112V25.3856C56.6429 25.4755 56.7149 25.5474 56.8049 25.5474Z" fill="#A1EDFF"/>
<path d="M75.3494 7.51045C72.8009 7.51045 71.3144 8.86354 70.1572 10.3501V8.00342C70.1572 7.91355 70.0851 7.84166 69.9951 7.84166H65.2941C65.2041 7.84166 65.1321 7.91355 65.1321 8.00342V25.3882C65.1321 25.4781 65.2041 25.55 65.2941 25.55H69.9951C70.0851 25.55 70.1572 25.4781 70.1572 25.3882V15.6701C70.1572 13.2925 71.3787 12.0704 73.2998 12.0704C75.2208 12.0704 76.3395 13.2925 76.3395 15.6701V25.3882C76.3395 25.4781 76.4115 25.55 76.5015 25.55H81.2052C81.2952 25.55 81.3672 25.4781 81.3672 25.3882V14.0833C81.3672 10.0215 79.1504 7.51045 75.3468 7.51045" fill="#A1EDFF"/>
<path d="M109.666 11.4131V8.00855C109.666 7.91869 109.594 7.8468 109.504 7.8468H104.8C104.71 7.8468 104.638 7.91869 104.638 8.00855V25.3856C104.638 25.4755 104.71 25.5474 104.8 25.5474H109.504C109.594 25.5474 109.666 25.4755 109.666 25.3856V19.0104C109.656 14.7304 111.79 12.7277 115.157 12.7636C115.247 12.7636 115.324 12.6917 115.324 12.6019V7.67477C115.324 7.58747 115.252 7.51302 115.164 7.51045C112.289 7.44112 110.677 9.01246 109.669 11.4131" fill="#A1EDFF"/>
<path d="M43.7433 21.5497C40.7447 21.786 38.2604 19.3057 38.4944 16.3145C38.6796 13.9601 40.5878 12.0499 42.946 11.8599C45.9472 11.6185 48.4366 14.1013 48.2 17.1002C48.0123 19.4572 46.1015 21.3649 43.7433 21.5497ZM47.9711 8.75057C46.549 7.92382 44.8851 7.4668 43.1106 7.51302C38.1961 7.63883 34.2049 11.6776 34.1406 16.5841C34.0737 21.7166 38.2218 25.8991 43.3498 25.8991C45.1371 25.8991 46.8062 25.3882 48.218 24.5075V25.3831C48.218 25.4729 48.29 25.5448 48.38 25.5448H53.0811C53.1711 25.5448 53.2431 25.4729 53.2431 25.3831V0.493371C53.2431 0.403507 53.1711 0.331616 53.0811 0.331616H48.38C48.29 0.331616 48.218 0.403507 48.218 0.493371V8.61192C48.218 8.73773 48.0817 8.81476 47.9711 8.75057Z" fill="#A1EDFF"/>
<path d="M125.737 21.5651C123.047 21.5651 120.868 19.3879 120.868 16.7048C120.868 14.0217 123.049 11.8444 125.737 11.8444C128.424 11.8444 130.605 14.0192 130.605 16.7048C130.605 19.3904 128.424 21.5651 125.737 21.5651ZM125.737 7.51045C120.65 7.51045 116.525 11.6262 116.525 16.7048C116.525 21.7834 120.647 25.9017 125.737 25.9017C130.826 25.9017 134.946 21.7834 134.946 16.7048C134.946 11.6262 130.823 7.51045 125.737 7.51045Z" fill="#A1EDFF"/>
<path d="M29.2132 0.131348C27.7242 0.131348 26.5155 1.33809 26.5155 2.82469C26.5155 4.3113 27.7216 5.51804 29.2132 5.51804C30.7048 5.51804 31.9109 4.3113 31.9109 2.82469C31.9109 1.33809 30.7022 0.131348 29.2132 0.131348Z" fill="#A1EDFF"/>
<path d="M59.158 0.131348C57.669 0.131348 56.4603 1.33809 56.4603 2.82469C56.4603 4.3113 57.6664 5.51804 59.158 5.51804C60.6496 5.51804 61.8532 4.3113 61.8532 2.82469C61.8532 1.33809 60.647 0.131348 59.158 0.131348Z" fill="#A1EDFF"/>
<path d="M11.5276 17.6753L5.13183 7.86477C5.10097 7.81855 5.04954 7.79031 4.99553 7.79031H0.253326C0.163316 7.79031 0.0913086 7.8622 0.0913086 7.95206V25.496C0.0913086 25.5859 0.163316 25.6578 0.253326 25.6578H4.92095C5.01096 25.6578 5.08297 25.5859 5.08297 25.496V15.973C5.08297 15.8113 5.29385 15.7497 5.38129 15.8832L11.5276 25.2804C11.5919 25.3779 11.7359 25.3779 11.8002 25.2804L17.9466 15.8806C18.034 15.7445 18.2449 15.8087 18.2449 15.9705V25.496C18.2449 25.5859 18.3169 25.6578 18.4069 25.6578H23.0746C23.1646 25.6578 23.2366 25.5859 23.2366 25.496V7.95206C23.2366 7.8622 23.1646 7.79031 23.0746 7.79031H18.3323C18.2783 7.79031 18.2269 7.81855 18.196 7.86477L11.7977 17.6779C11.7334 17.7755 11.5894 17.7755 11.5251 17.6779" fill="#A1EDFF"/>
</g>
<defs>
<clipPath id="clip0_340_657">
<rect width="135" height="26" fill="white"/>
</clipPath>
</defs>
</svg>
