<svg width="152" height="35" xmlns="http://www.w3.org/2000/svg" xmlns:xlink="http://www.w3.org/1999/xlink" viewBox="0 0 152 35"><g transform="translate(0 2)"><g><path d="M 47.573 20.911 C 47.573 18.747 48.863 16.396 49.957 15.717 C 51.967 14.469 53.978 15.324 53.978 17.905 C 53.978 23.327 47.573 25.692 47.573 20.911 Z M 1.742 29.776 L 1.759 8.31 L 1.742 8.31 Z M 56.567 8.31 L 55.042 14.479 C 54.53 13.306 53.999 12.616 52.497 12.343 C 48.479 11.614 45.524 14.794 44.305 18.559 C 43.427 21.272 43.521 24.666 45.72 25.768 C 47.906 26.864 51.038 26.025 52.769 23.942 L 52.334 26.008 L 55.669 26.007 C 56.006 23.526 58.109 16.024 58.946 12.815 C 59.303 11.448 59.877 9.657 60.088 8.31 L 150.153 8.31 L 150.171 1.83 L 1.764 1.83 L 1.759 8.31 Z" fill="rgb(210,212,213)"></path><path d="M 97.998 15.227 C 102.544 14.532 100.744 22.263 97.182 23.072 C 92.523 24.131 94.116 15.82 97.998 15.227 Z M 68.257 15.259 C 72.894 14.541 70.443 22.804 67.031 23.38 C 64.25 23.85 63.928 21.153 64.628 19.017 C 65.205 17.254 66.387 15.549 68.257 15.259 Z M 1.742 29.776 L 1.764 1.83 L 150.171 1.83 L 150.153 8.31 L 150.17 29.832 L 99.771 29.782 C 101.806 27.73 102.487 25.459 103.375 21.82 C 104.102 18.843 105.204 15.493 105.752 12.514 C 101.759 12.514 102.573 12.024 101.869 14.409 L 101.571 13.958 C 101.348 13.571 101.201 13.268 100.753 12.956 C 99.21 11.88 96.542 12.137 94.991 13.04 C 93.308 14.02 91.668 16.281 90.973 18.698 C 88.576 27.03 95.905 27.731 99.566 23.551 C 99.273 25.761 98.192 27.548 96.534 28.313 C 93.675 29.633 91.825 28.232 90.254 27.789 C 90.138 28.284 89.82 29.554 89.396 29.832 L 61.827 29.802 L 63.201 24.384 C 63.229 24.411 63.263 24.447 63.282 24.468 C 63.685 24.918 63.713 25.223 64.523 25.659 C 65.066 25.952 65.666 26.148 66.388 26.197 C 70.386 26.466 72.983 23.454 74.124 19.619 C 76.446 11.819 69.779 10.693 66.274 13.865 C 65.889 14.213 66.044 14.188 65.604 14.414 L 66.018 12.482 C 62.33 12.482 62.749 12.26 62.537 13.014 L 61.664 16.841 C 61.3 18.285 60.907 19.752 60.542 21.195 C 60.169 22.663 59.796 24.083 59.401 25.551 C 59.063 26.807 58.51 28.598 58.314 29.832 L 1.742 29.776 Z M 0 0.392 L 0 31.629 L 151.608 31.629 C 151.909 31.629 152 31.538 152 31.236 L 152 0.392 C 152 0.091 151.909 0 151.608 0 L 0.392 0 C 0.091 0 0 0.091 0 0.392 Z" fill="rgb(255,255,255)"></path><path d="M 117.132 18.559 C 116.254 24.713 109.139 25.722 110.135 19.964 C 111.224 13.676 117.948 12.837 117.132 18.559 Z M 106.71 18.881 C 105.344 23.867 107.926 26.925 113.052 26.271 C 122.138 25.112 124.309 10.894 114.326 12.22 C 110.464 12.733 107.638 15.495 106.71 18.881 Z" fill="rgb(255,255,255)"></path><path d="M 33.336 17.93 C 34.35 14.218 40.009 12.822 39.144 17.856 C 38.416 18.057 34.365 17.953 33.336 17.93 Z M 41.562 20.421 C 41.926 20.238 41.76 20.419 41.979 19.891 C 42.046 19.73 42.112 19.497 42.166 19.293 C 42.958 16.28 42.69 12.484 38.676 12.173 C 34.493 11.849 31.869 14.324 30.518 16.8 C 28.73 20.077 28.386 24.51 31.895 25.873 C 33.605 26.537 35.849 26.4 37.67 26.036 C 39.559 25.658 39.622 25.635 39.798 24.902 C 39.931 24.351 40.351 22.859 40.32 22.415 C 37.905 24.119 31.844 24.75 32.731 20.423 L 41.562 20.421 Z" fill="rgb(210,212,213)"></path><path d="M 84.74 19.866 C 82.921 19.866 80.011 19.81 79.115 21.608 C 78.761 22.317 78.777 23.004 79.286 23.444 C 80.903 24.844 84.318 22.741 84.74 19.866 Z M 79.169 13.151 C 81.239 12.628 82.455 12.088 84.952 12.294 C 91.856 12.862 87.556 19.246 86.521 26.009 L 83.36 26.007 L 83.752 24.18 C 82.452 25.309 81.116 26.411 78.412 26.186 C 76.159 25.998 74.866 24.65 75.409 22.217 C 76.382 17.859 80.629 17.689 85.214 17.684 C 85.762 16.718 85.755 14.672 82.86 14.772 C 80.895 14.84 79.919 15.551 78.521 16.195 L 79.169 13.151 Z M 133.458 12.751 C 133.458 12.751 133.458 12.751 133.458 12.751 L 133.458 12.751 Z M 133.458 12.751 L 132.561 15.407 C 131.384 15.132 130.537 14.781 129.168 14.941 C 127.96 15.083 126.853 15.536 127.07 16.851 C 127.971 17.729 130.013 18.031 131.132 19.037 C 132.393 20.171 131.6 22.826 130.748 23.839 C 129.862 24.893 128.516 25.727 126.693 26.071 C 125.295 26.335 122.353 26.292 121.168 25.616 L 122.04 22.731 C 123.177 23.129 123.813 23.674 125.337 23.649 C 126.471 23.631 127.843 23.101 128.034 22.166 C 128.399 20.379 124.282 20.591 123.508 18.433 C 123.1 17.295 123.48 15.875 124.029 15.026 C 124.599 14.145 125.295 13.662 126.317 13.128 C 128.668 11.899 130.895 12.179 133.458 12.751 Z" fill="rgb(255,255,255)"></path><path d="M 24.391 15.61 L 25.042 12.517 L 21.827 12.516 C 21.545 14.579 20.748 17.265 20.21 19.299 C 19.652 21.405 18.915 23.855 18.486 26.008 L 21.957 26.003 C 22.27 25.375 22.667 23.401 22.876 22.62 C 23.365 20.781 23.912 17.713 25.555 16.407 C 26.577 15.596 27.68 15.627 29.129 15.806 C 29.22 15.258 29.399 14.669 29.544 14.125 C 29.618 13.846 29.695 13.591 29.773 13.289 C 29.787 13.239 29.859 12.91 29.861 12.878 L 29.826 12.591 C 29.823 12.571 29.812 12.528 29.799 12.498 C 28.438 12.209 27.135 12.591 26.343 13.274 C 25.941 13.621 24.524 15.103 24.391 15.61 Z" fill="rgb(210,212,213)"></path></g></g></svg>