<svg xmlns="http://www.w3.org/2000/svg" width="220" height="220" fill="none"><path fill="#fff" d="M172.621 86.462c-.573-12.813-7.996-23.926-7.996-23.926s-3.799-7.163-19.719-18.224c-3.233-2.247-4.917-3.712-8.189-5.901-.062-.043-.271-.17-.468-.317-.173-.13-.376-.3-.496-.4-.12-.104-.693-.624-.939-.785-.283-.119-.951.492-.825.763 3.39 5.001 6.474 11 5.391 17.209-1.367 7.826-8.374 13.174-14.914 17.056-4.531 2.694-9.343 4.899-14.165 7.033-7.084 2.919-12.863 5.549-19.74 9.133l-5.773 2.409c-6.992 2.94-10.098 4.323-16.936 7.616-3.972 1.912-6.89 3.758-9.815 6.826-.61.638-2.315 2.493-4.353 6.111-4.963 8.808-5.893 17.431-6.093 19.644-.314 3.488-.896 11.125 2.364 20.125 1.136 3.138 2.676 6.193 4.662 9.173 5.27 7.917 12.293 13.007 20.233 18.057.13.082.28.137.434.189.154.051.317.091.477.124l.228-.617c-.043-4.764 1.145-9.593 3.768-13.621 4.858-7.464 15.28-12.019 23.34-15.385 7.7-2.989 15.255-5.95 22.752-9.522.169-.083.326-.195.48-.311a5.2 5.2 0 0 0 .45-.38c.317-.076.631-.155.939-.249.307-.094.615-.192.905-.322a587.591 587.591 0 0 0 16.576-7.607c11.782-5.65 21.828-15.175 25.839-27.699a60.617 60.617 0 0 0 1.327-7.975s.428-4.32.253-8.227h.003Z"/><path fill="#8F69FF" d="M88.613 81.443c-8.14-5.29-15.365-8.827-22.37-16.775-15.818-17.96-11.23-46.552 7.814-60.982C79.66-.558 83.263-1.458 89.38 2.683c2.774 1.88 5.613 4.15 8.303 6.181 12.417 9.383 24.424 19.033 37.133 28.033.058.192.418.675.471.757 4.892 7.346 7.792 14.853 2.644 23.092-6.77 10.83-31.326 19.824-42.73 25.078m45.051 133.63c2.506.885 5.44.998 10.071-2.037 10.711-7.017 18.309-25.837 14.15-42.271 0 0-4.717-16.263-22.247-26.327-5.4-3.098-9.009-5.318-13.928-8.854-.459-.325-1.213-1.14-1.518-1.432-2.589 1.174-5.97 2.162-8.584 3.299-11.425 4.962-29.42 10.167-37.618 19.422-4.046 4.567-5.869 10.794-5.66 16.823 16.361 10.736 32.974 21.101 49.153 32.101 2.118 1.441 14.183 8.571 16.181 9.276Z"/></svg>