<svg xmlns="http://www.w3.org/2000/svg" width="268" height="64" fill="none"><g filter="url(#a)"><rect width="256" height="51.674" x="6" y="6" fill="#fff" rx="12.23" shape-rendering="crispEdges"/><rect width="254.882" height="50.556" x="6.559" y="6.559" stroke="#fff" stroke-width="1.118" rx="11.671" shape-rendering="crispEdges"/><path stroke="#000" stroke-linecap="round" stroke-linejoin="round" stroke-width="2" d="M36.268 40.837a2 2 0 0 0 3.464 0m-10.47-5.674A1 1 0 0 0 30 36.837h16a1 1 0 0 0 .74-1.673c-1.33-1.37-2.74-2.828-2.74-7.327a6 6 0 1 0-12 0c0 4.5-1.41 5.956-2.738 7.326"/><circle cx="44" cy="24.837" r="2.5" fill="#F74040" stroke="#fff"/><path fill="#09090B" d="M71.656 36.837V26.9h1.47v9.937zm-3.333-9.636V25.88h8.136v1.32h-8.136Zm9.449 9.636v-8.015h1.14v3.302h-.06q0-1.755.766-2.567.78-.825 2.327-.825h.27v1.29h-.51q-1.201 0-1.847.646-.645.63-.645 1.831v4.338zm10.975 0v-2.402h-.24V31.66q0-.826-.435-1.246-.42-.42-1.246-.42-.465 0-.96.015l-.946.03q-.45.015-.78.045v-1.261q.33-.03.69-.045.375-.03.765-.03.39-.015.75-.015 1.232 0 2.012.3.78.285 1.156.945t.375 1.787v5.073h-1.14Zm-2.626.21q-.9 0-1.562-.3-.645-.315-1.005-.9-.346-.585-.346-1.412 0-.855.376-1.425.39-.57 1.126-.856.735-.3 1.77-.3h2.177v1.08h-2.236q-.87 0-1.336.42-.465.42-.465 1.081 0 .66.465 1.066t1.336.406q.51 0 .975-.18.466-.195.766-.631.315-.45.345-1.23l.39.57q-.075.855-.42 1.44-.33.57-.93.871-.585.3-1.426.3m6.412-.21v-8.015h1.14v3.437h-.18q0-1.185.316-1.996.33-.826.99-1.246.66-.435 1.666-.435h.06q1.517 0 2.237.945.735.945.735 2.732v4.578h-1.44V31.96q0-.93-.526-1.486-.525-.57-1.44-.57-.947 0-1.532.585t-.585 1.56v4.79h-1.441Zm12.228.24q-1.577 0-2.447-.675-.856-.676-.886-1.846h1.351q.03.465.466.885.45.405 1.516.405.96 0 1.471-.375.51-.39.51-.945 0-.495-.375-.766-.376-.285-1.216-.375l-.871-.09q-1.14-.12-1.861-.676-.72-.57-.72-1.59 0-.766.39-1.307.39-.555 1.081-.84.69-.3 1.591-.3 1.35 0 2.191.6t.871 1.786h-1.351q-.015-.48-.451-.81-.42-.346-1.26-.346t-1.276.346q-.435.345-.435.87 0 .45.3.72.315.27 1.02.346l.871.09q1.291.135 2.071.72.781.57.781 1.621 0 .75-.435 1.336-.421.57-1.171.901-.751.315-1.726.315m5.63-.24v-8.42q0-1.337.706-1.967t2.071-.63h.991v1.2h-1.231q-.555 0-.855.316-.301.3-.301.84v8.661zm-1.11-6.845v-1.08h5.028v1.08zm9.936 7.115q-1.05 0-1.816-.36a3.5 3.5 0 0 1-1.246-.946q-.48-.6-.72-1.336-.225-.735-.225-1.5v-.27q0-.781.225-1.517.24-.735.72-1.32.48-.6 1.216-.946.75-.36 1.756-.36 1.306 0 2.147.57.855.555 1.261 1.44.42.887.42 1.892v.646h-7.115v-1.081h6.064l-.33.585q0-.855-.27-1.47a2.1 2.1 0 0 0-.811-.976q-.54-.346-1.366-.346-.855 0-1.426.39-.555.39-.84 1.066-.27.675-.27 1.561 0 .855.27 1.546.285.675.87 1.081.586.39 1.486.39.946 0 1.531-.42.601-.42.721-.976h1.351a3.2 3.2 0 0 1-.661 1.426q-.495.6-1.246.916-.75.315-1.696.315m5.784-.27v-8.015h1.141v3.302h-.06q0-1.755.765-2.567.78-.825 2.327-.825h.27v1.29h-.511q-1.2 0-1.846.646-.645.63-.645 1.831v4.338zm9.476.27q-1.051 0-1.817-.36a3.5 3.5 0 0 1-1.245-.946 4.2 4.2 0 0 1-.721-1.336q-.225-.735-.225-1.5v-.27q0-.781.225-1.517.24-.735.721-1.32.48-.6 1.215-.946.751-.36 1.757-.36 1.306 0 2.146.57.856.555 1.261 1.44.42.887.42 1.892v.646h-7.115v-1.081h6.064l-.33.585q0-.855-.27-1.47a2.1 2.1 0 0 0-.811-.976q-.54-.346-1.365-.346-.856 0-1.426.39-.556.39-.841 1.066-.27.675-.27 1.561 0 .855.27 1.546.285.675.871 1.081.585.39 1.486.39.945 0 1.531-.42.6-.42.72-.976h1.351a3.2 3.2 0 0 1-.66 1.426q-.496.6-1.246.916-.751.315-1.696.315m5.783-.27v-8.015h1.141v3.437h-.18q0-1.185.315-1.996.33-.826.991-1.246.66-.435 1.666-.435h.06q1.515 0 2.236.945.736.945.736 2.732v4.578h-1.441V31.96q0-.93-.526-1.486-.525-.57-1.441-.57-.945 0-1.531.585-.585.585-.585 1.56v4.79h-1.441Zm13.039.27q-1.036 0-1.802-.36a3.6 3.6 0 0 1-1.246-.96 4.5 4.5 0 0 1-.75-1.352q-.24-.735-.24-1.47v-.27q0-.766.24-1.502.255-.735.75-1.32.511-.6 1.261-.961.751-.36 1.756-.36 1.006 0 1.802.375.81.375 1.291 1.066.495.675.555 1.606h-1.381q-.105-.75-.69-1.246-.586-.51-1.577-.51-.855 0-1.425.39t-.856 1.065-.285 1.531q0 .825.285 1.516.285.675.856 1.081.585.39 1.456.39.675 0 1.17-.24.496-.24.796-.645.3-.406.36-.916h1.381q-.045.946-.555 1.636-.496.69-1.321 1.081-.811.375-1.831.375m6.055-.27v-8.015h1.441v8.015zm-1.231-6.875v-1.14h2.672v1.14zm1.637-2.431q-.481 0-.721-.255a.94.94 0 0 1-.225-.646.94.94 0 0 1 .225-.645q.24-.255.721-.255.48 0 .705.255.24.255.24.645c0 .39-.08.476-.24.646q-.225.255-.705.255m8.67 9.306v-2.402h-.241V31.66q0-.826-.435-1.246-.42-.42-1.246-.42-.465 0-.96.015l-.946.03q-.45.014-.781.045v-1.261q.331-.03.691-.045.375-.03.765-.03.391-.015.751-.015 1.231 0 2.011.3.781.285 1.156.945t.375 1.787v5.073zm-2.627.21q-.901 0-1.561-.3a2.37 2.37 0 0 1-1.006-.9q-.345-.585-.345-1.412 0-.855.375-1.425.39-.57 1.126-.856.736-.3 1.771-.3h2.177v1.08h-2.237q-.87 0-1.336.42-.465.42-.465 1.081 0 .66.465 1.066.466.406 1.336.406.51 0 .976-.18.465-.195.765-.631.315-.45.345-1.23l.391.57q-.075.855-.421 1.44-.33.57-.93.871-.586.3-1.426.3m9.827-.21v-8.015h1.141v3.302h-.06q0-1.755.766-2.567.78-.825 2.326-.825h.27v1.29h-.51q-1.2 0-1.846.646-.645.63-.646 1.831v4.338zm9.476.27q-1.05 0-1.816-.36a3.5 3.5 0 0 1-1.246-.946q-.48-.6-.72-1.336-.225-.735-.225-1.5v-.27q0-.781.225-1.517.24-.735.72-1.32.48-.6 1.216-.946.75-.36 1.756-.36 1.306 0 2.147.57.855.555 1.26 1.44.421.887.421 1.892v.646h-7.115v-1.081h6.064l-.33.585q0-.855-.27-1.47a2.1 2.1 0 0 0-.811-.976q-.54-.346-1.366-.346-.856 0-1.426.39-.555.39-.84 1.066-.27.675-.271 1.561 0 .855.271 1.546.285.675.87 1.081.586.39 1.486.39.946 0 1.531-.42.601-.42.721-.976h1.351a3.2 3.2 0 0 1-.661 1.426q-.495.6-1.246.916-.75.315-1.696.315m10.632-.27v-2.402h-.24V31.66q0-.826-.436-1.246-.42-.42-1.245-.42-.466 0-.961.015l-.946.03q-.45.014-.78.045v-1.261q.33-.03.69-.045.376-.03.766-.03.39-.015.75-.015 1.231 0 2.012.3.78.285 1.155.945.376.66.376 1.787v5.073zm-2.627.21q-.9 0-1.561-.3-.645-.315-1.006-.9-.345-.585-.345-1.412 0-.855.375-1.425.391-.57 1.126-.856.736-.3 1.771-.3h2.177v1.08h-2.237q-.87 0-1.336.42-.465.42-.465 1.081 0 .66.465 1.066.466.406 1.336.406.511 0 .976-.18.465-.195.766-.631.315-.45.345-1.23l.39.57q-.075.855-.42 1.44-.33.57-.931.871-.585.3-1.426.3m6.502-.21V25.88h1.441v10.957zm-1.11-9.817v-1.14h2.551v1.14zm5.706 9.817v-8.015h1.441v8.015zm-1.231-6.875v-1.14h2.672v1.14zm1.636-2.431q-.48 0-.721-.255a.94.94 0 0 1-.225-.646.94.94 0 0 1 .225-.645q.24-.255.721-.255.48 0 .705.255.24.255.24.645c0 .39-.08.476-.24.646q-.225.255-.705.255m3.311 9.306v-1.606l4.368-5.239v.24l-.24-.36.195.09h-4.383v-1.14h5.704v1.606l-4.368 5.238v-.21l.27.375-.21-.135h4.548v1.141zm12.688 0v-2.402h-.24V31.66q0-.826-.435-1.246-.421-.42-1.246-.42-.465 0-.961.015l-.946.03q-.45.014-.78.045v-1.261q.33-.03.69-.045.376-.03.766-.03.39-.015.75-.015 1.231 0 2.012.3.78.285 1.156.945t.375 1.787v5.073zm-2.627.21q-.9 0-1.561-.3-.645-.315-1.005-.9-.346-.585-.346-1.412 0-.855.376-1.425.39-.57 1.125-.856.736-.3 1.771-.3h2.177v1.08h-2.237q-.87 0-1.335.42-.466.42-.466 1.081 0 .66.466 1.066.465.406 1.335.406.511 0 .976-.18.465-.195.766-.631.315-.45.345-1.23l.39.57q-.075.855-.42 1.44-.33.57-.931.871-.585.3-1.426.3m9.76.06a3.9 3.9 0 0 1-1.576-.315 3.8 3.8 0 0 1-1.261-.886q-.526-.57-.826-1.32a4.5 4.5 0 0 1-.285-1.621v-.27q0-.856.285-1.607.285-.75.796-1.32a3.77 3.77 0 0 1 2.822-1.216q.915 0 1.666.39.75.375 1.231 1.186.48.81.54 2.101l-.6-.96v-5.39h1.441v10.958h-1.141V33.28h.42q-.06 1.365-.57 2.221-.511.84-1.291 1.231a3.7 3.7 0 0 1-1.651.375m.195-1.26q.735 0 1.336-.33.6-.331.96-.946.361-.63.361-1.471v-.69q0-.827-.376-1.397a2.3 2.3 0 0 0-.975-.885 2.8 2.8 0 0 0-1.321-.316q-.796 0-1.411.376-.6.375-.946 1.05-.33.675-.33 1.591c0 .916.115 1.146.345 1.606q.345.675.961 1.051.615.36 1.396.36Zm11.654.99v-2.402h-.24V31.66q0-.826-.435-1.246-.42-.42-1.246-.42-.465 0-.96.015l-.946.03q-.45.014-.781.045v-1.261q.331-.03.691-.045.375-.03.765-.03.391-.015.751-.015 1.23 0 2.011.3.781.285 1.156.945t.375 1.787v5.073zm-2.626.21q-.901 0-1.561-.3a2.37 2.37 0 0 1-1.006-.9q-.345-.585-.345-1.412 0-.855.375-1.425.39-.57 1.126-.856.735-.3 1.771-.3h2.176v1.08h-2.236q-.87 0-1.336.42-.465.42-.465 1.081 0 .66.465 1.066t1.336.406q.51 0 .976-.18.465-.195.765-.631.315-.45.345-1.23l.391.57q-.076.855-.421 1.44-.33.57-.93.871-.586.3-1.426.3"/></g><defs><filter id="a" width="267.2" height="62.874" x=".4" y=".4" color-interpolation-filters="sRGB" filterUnits="userSpaceOnUse"><feFlood flood-opacity="0" result="BackgroundImageFix"/><feColorMatrix in="SourceAlpha" result="hardAlpha" values="0 0 0 0 0 0 0 0 0 0 0 0 0 0 0 0 0 0 127 0"/><feOffset/><feGaussianBlur stdDeviation="2.8"/><feComposite in2="hardAlpha" operator="out"/><feColorMatrix values="0 0 0 0 1 0 0 0 0 1 0 0 0 0 1 0 0 0 0.25 0"/><feBlend in2="BackgroundImageFix" result="effect1_dropShadow_3_3909"/><feBlend in="SourceGraphic" in2="effect1_dropShadow_3_3909" result="shape"/><feColorMatrix in="SourceAlpha" result="hardAlpha" values="0 0 0 0 0 0 0 0 0 0 0 0 0 0 0 0 0 0 127 0"/><feOffset dy="-3.355"/><feGaussianBlur stdDeviation="4.976"/><feComposite in2="hardAlpha" k2="-1" k3="1" operator="arithmetic"/><feColorMatrix values="0 0 0 0 0 0 0 0 0 0 0 0 0 0 0 0 0 0 0.04 0"/><feBlend in2="shape" result="effect2_innerShadow_3_3909"/></filter></defs></svg>